<svg enable-background="new 0 0 511.977 511.977" viewBox="0 0 511.977 511.977" xmlns="http://www.w3.org/2000/svg"><path d="m262.948 0c-140.32 0-214.944 89.92-214.944 187.968 0 45.472 25.408 102.176 66.08 120.16 6.176 2.784 9.536 1.6 10.912-4.128 1.216-4.352 6.56-25.312 9.152-35.2.8-3.168.384-5.92-2.176-8.896-13.504-15.616-24.224-44.064-24.224-70.752 0-68.384 54.368-134.784 146.88-134.784 80 0 135.968 51.968 135.968 126.304 0 84-44.448 142.112-102.208 142.112-31.968 0-55.776-25.088-48.224-56.128 9.12-36.96 27.008-76.704 27.008-103.36 0-23.904-13.504-43.68-41.088-43.68-32.544 0-58.944 32.224-58.944 75.488 0 27.488 9.728 46.048 9.728 46.048s-32.192 130.048-38.176 154.336c-10.112 41.12 1.376 107.712 2.368 113.44.608 3.168 4.16 4.16 6.144 1.568 3.168-4.16 42.08-59.68 52.992-99.808 3.968-14.624 20.256-73.92 20.256-73.92 10.72 19.36 41.664 35.584 74.624 35.584 98.048 0 168.896-86.176 168.896-193.12-.352-102.528-88.096-179.232-201.024-179.232z"/></svg>