<svg height="20" viewBox="0 0 24 20" width="24" xmlns="http://www.w3.org/2000/svg"><path d="m942 244.367692c-.8925.401539-1.8435.667693-2.835.796923 1.02-.624615 1.7985-1.606153 2.1645-2.78923-.951.581538-2.001.992307-3.12 1.221538-.903-.986154-2.19-1.596923-3.594-1.596923-2.724 0-4.917 2.267692-4.917 5.047692 0 .4.033.784616.114 1.15077-4.0905-.204616-7.71-2.215385-10.1415-5.278462-.4245.755385-.6735 1.62-.6735 2.550769 0 1.747693.8775 3.296923 2.1855 4.193846-.7905-.015384-1.566-.250769-2.223-.621538v.055385c0 2.452307 1.7055 4.48923 3.942 4.958461-.4005.112308-.837.166154-1.29.166154-.315 0-.633-.018462-.9315-.086154.6375 1.998462 2.4465 3.467692 4.5975 3.515385-1.674 1.343077-3.7995 2.152307-6.1005 2.152307-.4035 0-.7905-.018461-1.1775-.06923 2.1795 1.441538 4.7625 2.264615 7.548 2.264615 9.054 0 14.004-7.692308 14.004-14.36 0-.223077-.0075-.438462-.018-.652308.9765-.710769 1.797-1.598461 2.466-2.62z" fill="#333742" fill-rule="evenodd" transform="translate(-918 -242)"/></svg>