<svg height="98" viewBox="0 0 85 98" width="85" xmlns="http://www.w3.org/2000/svg"><g fill="none" fill-rule="evenodd" transform="matrix(.98480775 .17364818 -.17364818 .98480775 -38.078441 -44)"><path d="m133.119598 116.345338c-4.42146-3.65752-11.821123-3.915232-17.600943-3.353553-3.721905.366744-7.304578 1.661909-11.03667 1.916316-5.504752.376656-11.0230872-1.602436-15.4037964-4.863478-4.3841051-3.264345-6.8257562-5.84146-9.277595-10.6520736-3.548714 6.2808906-7.4132466 9.6542676-12.4459683 14.8910976-5.0327217 5.233525-11.6241609 9.363516-18.9423224 10.186211-3.2328954.363439-6.4997499.075991-9.7564167.125551-7.2468476.109032-14.4495485.588111-20.8474214 3.895408 4.7236949-5.302909 9.0500697-11.425208 9.742833-18.40985.4414669-4.443871-.6214494-8.894349-.5535314-13.3547401.1562113-10.3811466 6.2790165-21.1785964 16.0931634-25.2557239-7.9124437-2.7489224-14.8978071-7.9725356-19.6622529-14.7060737-7.6407718-10.7974497-9.3692842-25.1004362-19.30907938-33.94853 3.93584647 3.0495857 9.20967698 4.0374797 14.24239868 3.8524561 5.0293259-.1850237 9.9431911-1.4306291 14.8808277-2.3854831 13.128544-2.5440748 26.1314397-2.1905475 35.9489825 10.9560414 3.0970596-7.5628404 9.077237-13.8899874 16.8266776-16.969309 7.7460447-3.0793217 16.0626-4.7742702 23.560744-8.38883871 4.930845-2.3788751 9.443994-5.56722852 13.291548-9.38994864-1.497592 7.97914355.278463 15.83273535.665596 23.93412665.821807 17.3657882-3.742281 30.1984977-18.331061 40.232725 8.513518 4.8139181 15.040435 10.3051548 19.023824 19.0640407 4.659173 10.2588988 2.156396 23.5244313 8.890463 32.6236283z" fill="#bc3736"/><path d="m100.836612 110.728711c-4.2339858-4.621043-7.1676948-10.44729-8.370936-16.627239 1.9795258 1.4999557 4.2242822 2.6396601 6.5951849 3.3470628-1.9407116-1.9289824-3.5417987-4.2051161-4.7126947-6.6875756 2.4388276 1.6997315 5.3304879 2.7280854 8.2836038 2.9376862-2.7040579-2.7411855-5.6895193-5.1941699-8.8949279-7.309828 4.440995.9726787 8.8819899 1.9420825 13.3262199 2.9114862-.811865-1.1135043-1.623729-2.2270086-2.435593-3.3405128 2.141251.4061015 4.279269.8154781 6.420521 1.2215797-1.837207-1.8765822-4.175765-3.2422625-6.701925-3.91364 3.984928-1.0676541 8.303012-.8056531 12.129448.7368778-1.251759-1.7161066-2.066858-3.7564394-2.351496-5.8688225 1.151489 1.8372821 2.600554 3.4846134 4.269566 4.8568436-.999467-2.105833-1.597853-4.3950668-1.808096-6.7203257-3.67118-5.0435193-8.487379-8.8261588-14.290107-12.2419969 9.674448-6.9233765 14.710594-15.1960582 16.61896-25.3878972-2.416185 3.2095123-4.832371 6.4190246-7.248557 9.6285369.475474-3.6188889 1.500817-7.1624524 3.021041-10.4702151-1.203241 1.6735314-2.409717 3.3437878-3.612958 5.0173192 1.041515-3.1767622 2.335323-6.265099 3.862016-9.2289853-2.416186 3.4387631-4.832372 6.8775263-7.245324 10.3162895 1.649605-5.4070457 3.651773-10.706016 5.99033-15.8477857-2.736403 4.4900422-5.673347 8.8556339-8.804361 13.07385.16496-2.3187088.77305-4.6079426 1.78222-6.7006756-1.956884 2.0403328-3.913769 4.0806656-5.867418 6.1177234 1.293807-2.2302835 2.425889-4.5522674 3.386541-6.9495766-1.901897 1.7488567-3.80056 3.5009884-5.7024571 5.2498451 2.4485311-3.2586375 4.6480041-6.7072257 6.5725431-10.3097395-4.424822 5.4332458-9.6647436 10.178739-15.4901129 14.0203287 3.2054087-4.3590417 6.4108173-8.7180834 9.6129914-13.0771251-3.4415285 2.2171835-6.7278001 4.686543-9.8232351 7.3786033 3.02751-2.9016611 5.7962586-6.0816983 8.2577278-9.4877113-2.7493414 1.4508305-5.3531295 3.1800371-7.7628464 5.1581447 7.779019-5.9015726 14.4971152-13.2343257 19.7240992-21.5332074-6.93481 6.9397515-14.328921 13.4079013-22.1176435 19.348774 3.687352-3.5566636 7.2517923-7.2443277 10.6900864-11.0498923-3.7326353 3.0686868-7.4652706 6.1340985-11.1979059 9.2027853 4.2857381-4.5064173 8.5714762-9.0128345 12.8572143-13.5225268-5.6345327 3.4092881-10.8259362 7.565279-15.3995465 12.3304222.915369-2.086183 2.1833005-4.0118904 3.7326353-5.6690467-1.7854547.9464786-3.5709093 1.8962323-5.356364 2.8459859 1.1741305-1.4704806 2.3450265-2.9442363 3.5159225-4.4147169-2.92724 1.31328-5.6765814 3.0261116-8.1509887 5.0828195 1.9374771-2.8034108 4.266331-5.3251704 6.8798226-7.4932287-.3331555.1310005-.6695455.2521759-.9994665.3897265-7.3811731 3.0523116-13.0771616 9.3239607-16.0270432 16.8204644-4.8032612-6.6941257-10.4119177-10.0280884-16.4248891-11.3577435-1.164427 2.7280854-2.0118711 5.5937214-2.4614692 8.5314076-1.7337024-1.7226566-2.7105272-4.201841-2.6231952-6.6613755-.2716996 4.3066415.0743939 8.6525832 1.0188736 12.8576993-1.2323519-2.8459859-2.4679383-5.6919718-3.7035247-8.5346827-.2943412 3.8022895-.0226416 7.6504293.8086299 11.3708435-2.1121411-2.8263358-4.2210477-5.6559466-6.3331889-8.4822825 1.3940779 4.2444163 3.5773784 8.2202815 6.4011138 11.6590447-3.0339791-1.7521317-6.0647238-3.5042634-9.0987029-5.2531201 2.4064824 2.6691352 5.094368 5.0828194 7.9989663 7.1886525-4.1692954-.9399286-8.1348161-2.8197858-11.5181233-5.4627209 3.7326353 3.9005399 8.3159492 6.9692267 13.3229851 8.9178591-8.3677015-1.1953795-16.4572343-4.3393916-23.4664377-9.1176349 3.0824969 4.424542 6.7245657 8.4495324 10.8097636 11.9406957-3.2474574-.1277255-6.439928-1.3984303-8.8981627-3.5501136 1.5622729 2.5414098 3.4609357 4.8633937 5.6345327 6.8873514-1.9083664-1.31328-3.8167328-2.6298351-5.7250992-3.9463901 1.68195 2.5446847 3.5838474 4.9387189 5.6798159 7.1493524-1.0544533.009825-2.1056721-.0917004-3.1407183-.2849261 4.4118844 5.4561709 10.2987096 9.6907621 16.8583148 12.0618712-8.5941179 3.7138642-14.2027744 13.06075-15.1698957 22.5386363.5013505-.5371021.9412452-1.1462544 1.3682017-1.7455817-.255527 2.7248104-.511054 5.4496208-.7633466 8.1744313 1.6851846-2.5053846 3.3703692-5.0107692 5.0555537-7.5161538.4010804 1.2412298.3881424 2.616735-.0388142 3.8514148 1.5493348-.5764023 3.0048685-1.4180805 4.2825036-2.4791845-.5207576.9137285-1.0447497 1.830732-1.5655074 2.7444605 1.7239988-1.6931815 3.7682151-3.0490367 5.9903298-3.9693152-1.6787155 2.2892337-3.3541965 4.5784675-5.032912 6.8677013 4.2889726-3.0228366 8.8852246-5.6035465 13.6884857-7.6831795-3.0566207 3.4518633-5.5116209 7.4506536-7.2162126 11.7540198 1.5137551-1.974832 3.0242756-3.9496649 4.5380306-5.9244974-2.0797959 3.2062374-3.5935509 6.7891014-4.447464 10.5258904 2.7040581-3.458413 5.4081163-6.916827 8.1121744-10.3719648-1.9051318 5.5085708-3.1795325 11.2398428-3.7779185 17.0464398 2.0862649-1.614581 4.1757644-3.219337 6.2652639-4.833918-.6177932 1.621131-1.2323519 3.245537-1.8501451 4.866669 1.0867985-.992329 2.1768316-1.981383 3.26363-2.976987-.5369302 2.181159-1.6140251 4.221491-3.0986695 5.885198 2.4355931-1.431181 4.8711861-2.862361 7.3100137-4.290267-1.7207643 3.212788-3.9072993 6.157024-6.4496315 8.750834 4.8032612-1.765232 9.1278135-4.971469 12.6469705-8.777034 4.7935577-5.190895 8.4744407-8.534683 11.8545134-14.7604814 2.3353229 4.7684184 4.6609423 7.3229284 8.8367067 10.5586404.7601121.589502 1.5687419 1.123329 2.3967789 1.617856-.4334256-1.208479-.8150989-2.443159-1.1417854-3.690939 2.3579646.317676 4.602721 1.454106 6.2684985 3.173487-1.3164494-1.591656-2.2253493-3.527188-2.6134916-5.564246 2.3062123 2.895111 5.4792757 5.072994 8.9919637 6.173399z" fill="#771f1c"/><path d="m74.8758384 128.309895c-.3635776-4.439679-4.2595283-8.58758-7.7285256-11.402582-2.2348348-1.807039-4.9166365-3.027204-7.0947665-4.907188-3.2154936-2.771898-5.1201065-6.860117-5.6838186-11.054437-.5670476-4.1910041-.4569737-6.9496398.9006051-10.9615979-5.453664 1.5815736-9.4530176 1.3693708-15.130165 1.5649952-5.6771474.1923088-11.5877851-1.0742764-16.0407767-4.5789373-1.9679889-1.5484169-3.589078-3.47482-5.3936237-5.21223-4.0160314-3.862753-8.2121839-7.4934094-13.55910945-9.114771 5.54706005-.4011958 11.33761705-1.4721565 15.62716555-4.9933958 2.7251642-2.2347602 4.6364482-5.291806 7.1714847-7.7420845 5.8972953-5.7029488 15.286937-8.4085338 22.9254021-5.3680664-2.781869-5.8156814-3.6691317-12.5100149-2.4983452-18.8462562 1.8745928-10.1592065 8.9393391-19.0684061 8.4690232-29.38344888.4402958 3.83291208 2.7685266 7.23810298 5.6171071 9.85748068 2.8485804 2.6226933 6.2241816 4.5888843 9.4563531 6.7308058 8.5891038 5.6896861 15.4870714 12.9277891 13.4823912 25.5737464 5.9273155-2.5398016 12.7318871-2.8315804 18.6825513-.3514608 5.954 2.4801196 11.44102 6.0345156 17.555128 8.0802827 4.022702 1.3428454 8.272224 2.0092947 12.511739 1.9628753-5.28355 3.6372877-8.71252 8.9788287-13.03876 13.7036554-9.269561 10.1293654-18.949397 14.8110885-32.5285204 12.5066993 1.951311 7.2944694 2.4416404 13.8893328-.290195 20.931811-3.1988157 8.242751-11.9913895 14.280582-13.4123442 23.004104z" fill="#dc484a"/><path d="m53.2085914 71.5922101c-1.944-.288-3.882-.576-5.826-.864 1.89.576 3.858.84 5.826.864z" fill="#bc3736"/><path d="m77.2153032 77.8258257c1.9334345 2.2450766 3.8703277 4.4901532 5.8072209 6.738512-1.5322209-2.8358862-3.0644418-5.6684901-4.5932039-8.5043763 3.2754248 2.4912472 6.9382282 4.5065645 10.8154733 6.0328227.3285801.0426696.6675364.0984683.9926578.1345733-2.6632282-1.9332604-5.2330704-3.9781181-7.6783981-6.1542669 2.7151092.8632385 5.4267597 1.726477 8.1418689 2.5897155-3.2339199-1.2603939-6.108131-3.3380744-8.2490898-5.9573304 4.4271845 1.0273523 8.9235437 1.7888403 13.4510316 2.2778993-3.5797937-1.8150984-7.0177791-3.8763676-10.2828277-6.1608315 4.1193568-.5284464 8.2352549-1.0568927 12.3546117-1.5886214-5.8418083-.4496718-11.5833131-2.0284464-16.7748787-4.6083151 3.3861044-1.0404814 6.7756675-2.0842451 10.1617719-3.1247265-3.2235437-.7188184-6.5681432-.9387308-9.8643204-.643326 2.8154126-1.9529541 5.9386529-3.5054705 9.2313714-4.5886215-3.4379855-.7089715-7.1976335.1312911-9.9404127 2.2286652 2.3899879-4.1520787 5.2745753-8.0415755 8.5430826-11.6126914-.8923544.1838074-1.7708738.416849-2.639017.6892779-4.3407161 3.1214442-7.2529733 8.1203501-9.8089806 12.8468271.2455704-2.8884026.4911408-5.7768052.7367111-8.6684901-1.5529733 1.916849-2.7289441 4.1094091-3.4483616 6.4266958.2213592-1.8840263.0484223-3.8140044-.5084345-5.6356674-.8508495 2.547046-1.6982403 5.0940919-2.5490898 7.6444201-.0276699-5.6881838-.8716019-11.3763676-2.5110437-16.8479212-.619114 4.7067834-1.425 9.3873085-2.4176577 14.0350109-.4876821-2.0743982-1.3454491-4.0667396-2.5214199-5.8752735.1175971 1.5754924.2386529 3.154267.35625 4.7330416-.8128034-1.5984683-1.6290656-3.1936543-2.441869-4.7921225-.0864684 1.5295404-.1729369 3.0590809-.2559466 4.5886214-.5222694-1.9201313-1.0410801-3.8435449-1.5598907-5.7636761-.1729369 3.1870897-.3493326 6.3741794-.5222695 9.5612691-1.1586771-1.5032823-2.0544903-3.1936543-2.6320995-4.97593-.2836165 1.9037199.0587986 3.8829322.9684466 5.5995624-1.7397451-1.8610503-3.258131-3.9059081-4.5205704-6.0886215.4807646 2.1958425 1.6394418 4.5361051 3.2754248 6.1509847 0 0-4.7315534-2.6126914-7.6368932-6.1477024.9788228 2.3074398 1.359284 4.6345733 3.1301578 6.4660832-3.20625-1.2308534-6.2603156-2.8260394-9.0722695-4.7428884 3.444903 3.5087527 7.5642597 6.416849 12.0986651 8.5306345-4.4098908-.774617-8.709102-2.1006564-12.7523665-3.9354485 3.7250607 3.5743982 8.5569175 6.095186 13.7311893 7.1652078-2.0648665 1.3161926-4.5620752 1.9726477-7.045449 1.9431073 2.8465412.4004376 5.6930825.8008752 8.5396238 1.2013129-4.6174151 3.6597374-10.3727549 6.0131291-16.3494539 6.6827133 5.5962378 1.7888403 11.9118932 1.4540482 17.2591019-.9190372-2.4868325 2.7242889-5.3817961 5.1170679-8.5672937 7.083151 3.655886-.8501094 7.0108617-2.8227571 9.4423544-5.5503282-1.3800364 4.1061269-3.6005461 7.9398249-6.4332524 11.3074398.1936893-.0525164.3804611-.0886214.5810679-.1444201-.0276699.07221-.0449636.1378556-.0691747.2100656 3.1370752-2.7768052 5.5236043-6.2921225 7.8375-9.7483588-1.5114685 3.2199124-2.217051 6.7811816-2.0406554 10.3030634.5533981-4.1586433 2.6009709-8.1301969 5.7242112-11.0973742-1.7120752 4.3293217-2.1547937 9.1017506-1.2693568 13.6477024.5879854-4.3687089 1.9818568-8.6389496 4.0951456-12.5612691.1833131 3.3676149.3631675 6.7352298.5464806 10.0995624.7090413-3.0164114 1.4146238-6.0361051 2.1236651-9.0525165.501517 4.3621445 1.0030339 8.7242889 1.5045509 13.0864333 2.2032161-5.071116 3.2304612-10.5984683 2.995267-16.0798687 1.1932646 4.1717724 2.3865292 8.3435449 3.576335 12.5153173 1.2243932-3.5842451.8300971-7.6378556-1.0652913-10.9496718z" fill="#bc3736"/><path d="m61.7937257 62.4204294c1.4287672.7049204 2.9150685 1.3013915 4.4429224 1.7894133-1.7100456-2.057524-2.3812785-4.8531057-1.7771689-7.4046765 1.3488584 1.2531918 2.2757991 2.904031 2.6178082 4.660307-.377169-2.063549-.0990868-4.2325348.7894977-6.1514847.6392694 2.9160809 1.0707763 5.871324 1.2913242 8.8386171.4283105-2.7594319 1.7260274-5.3923397 3.6853881-7.4860135-.773516 2.0665615-1.3328767 4.20241-1.6621004 6.3683833 1.7388128-1.5695022 3.4808219-3.1420169 5.2196347-4.7115191-1.0899544 2.2955099-2.4100457 4.497633-3.9347032 6.561182 1.9753424-.9609812 4.1456621-1.5664897 6.3575342-1.7713384-1.5086758 1.4911777-3.186758 2.8347439-4.992694 3.9945489 2.422831-.5814087 4.8456621-1.1628174 7.2684931-1.7412136-1.8187214 1.5303399-4.0849315 2.584708-6.4821918 3.0154927 2.7680366-.1596614 5.5136987-.608521 8.1762557-1.3435662-1.9465753 1.524315-4.2447488 2.6479702-6.6899543 3.2715536 1.7547945.4036723 3.4360731 1.0875054 4.9479452 2.0123368-2.0648402-.2349735-4.126484-.4699469-6.1913242-.7049204.7575343.8314446 1.5150685 1.6659016 2.2726027 2.4973462-1.6748858-.8434945-3.352968-1.686989-5.0310502-2.5334959.0383562 1.6207144-.2940639 3.2444412-.9748858 4.7326065-.9525114-1.2893416-1.7292238-2.6961699-2.3013699-4.1752977-.6105023 1.4941902-1.5118721 2.8799312-2.6465753 4.0698609.4634703-1.4972027.9269406-2.9974179 1.3904109-4.4976331-1.7995434 1.3556161-3.7205479 2.5666332-5.7374429 3.6119639.8757991-2.4129967 2.2374429-4.666332 3.9890411-6.6123942-1.2657534.2741357-2.5826484.3373978-3.8707763.1927987 1.2465754-.3855975 2.4931507-.771195 3.7397261-1.1567924-1.2977169-1.7773634-2.5986302-3.5517143-3.8963471-5.3260652z" fill="#e48a2f"/><path d="m77.1299271 60.5493992c-2.3990574 1.7757847-4.4257659 3.8038116-6 6 2.4603299-1.7455157 4.5483111-3.7533632 6-6z" fill="#d3c429"/><path d="m63.0007083 76.3560106c.9737625-3.0382436 2.5885853-5.8470255 4.6984041-8.1671388-1.6229375-1.4320113-3.1606708-2.9702549-4.5969705-4.6062323 2.3573167.7903683 4.5117663 2.2266289 6.1915066 4.1303116.377333-1.8951841 1.0062213-3.8073654 1.8014607-5.5538243-.3448742 1.9674221-.6613471 3.9390935-.9494185 5.9150141 2.4222343-1.5722379 5.0838518-2.7407932 7.8550176-3.4419263-2.2477685 1.7379603-4.5929132 3.3441926-7.0151474 4.805949.6978631 2.5113314 1.1117122 5.1076487 1.2293752 7.7209632-.8317555-2.4178471-1.6675683-4.8356941-2.5033812-7.2492918-.2799567 1.2620396-.5599134 2.5283286-.8398701 3.7946175-.0324588-1.4872521-.0649175-2.9745042-.0973763-4.4617563-1.3876116 3.0509915-3.0430078 5.3201133-5.7736002 7.1133144z" fill="#d3c429"/><path d="m69.5102001 62.6213442c-.948-2.0590195-2.34-4.0723465-4.146-6-.57 2.1589719.99 4.4264636 4.146 6z" fill="#d3c429"/><path d="m74.2201661 67.972611c-.5717566-.084-1.1469575-.168-1.7221585-.252 1.966705-.78 3.9816304-1.188 6-1.212-.5476463.888-1.2916188 1.35-2.0321469 1.512-.7439725.168-1.4982778.06-2.2456946-.048z" fill="#d3c429"/><g fill="#e17453"><path d="m84.5255771 37.6153536c-1.8730423-6.9742399-7.89005-11.7377534-14.9430489-15.703125-3.6372305-2.0460304-7.4358654-3.9241977-10.6414328-6.4294764-3.2055674-2.5021115-5.8255744-5.75485639-6.3210486-9.41617396.5292565 9.85325166-7.4208509 18.36359796-9.5303695 28.06798986-1.1673671 5.3621199-.5067349 10.9902872 1.8317528 16.0705237.1388829.1615287.2890266.3135557.4091415.4845861-.5442708-1.558277-.3978807-3.2210726-.183926-4.8363598.6230962-4.6399915 1.8092312-9.2261402 3.5471442-13.663429-.2702586.9470016-.3903735 1.9288429-.4579382 2.9011824-.3415768 4.9725507.2589979 9.9926098 1.775449 14.8036317-.4429239-1.2700591-.3190553-2.6288006-.1538973-3.9495354.469199-3.762669 1.2612068-7.4904983 2.0494611-11.2151605 1.0322378 4.8236909 2.0644755 9.6442145 3.0967132 14.4679054.4279095-4.7350084.4579382-9.498522.0863326-14.2366976 1.5502335 2.578125 2.4998922 5.3747888 3.4382901 8.1524493.4616918 1.365076.9233836 2.730152 1.3850754 4.0983953.367852-2.6984798-.101347-5.4222973-.570546-8.1081081-.6531249-3.7404984-1.3062499-7.4809967-1.9593749-11.221495 3.0666845 5.1499156 5.3000716 10.6513936 6.6175824 16.3080659.53301 2.2772382.9158764 4.576647 1.2987427 6.8760557 1.002209-7.4239864.2364763-15.0158361-2.2296335-22.1927787 5.4389545 6.3566301 8.0927439 14.1575169 7.50343 21.9837416.6080819-2.3500845 1.2161637-4.7001689 1.8242456-7.0470862 1.020977 1.640625 1.6665948 3.4522804 1.8805495 5.2987754 1.0097162-5.1087416 1.0284841-10.353674.0525503-15.4655828 3.6259696 4.8236909 5.5177799 10.5658784 5.3601291 16.2795608.5667923-2.536951.8933548-5.115076.9684266-7.6963682 1.7679418 2.3184121 2.75889 5.0517314 2.8302083 7.804054-.6155891-4.1269003.8745868-8.2601351 1.0359913-12.4155405z"/><path d="m98.9237998 81.0185883c-1.656-.048-3.318-.09-4.98-.138 1.656.192 3.318.222 4.98.138z"/><path d="m14.4986952 82.1425058c1.9099404 1.8609455 3.6257095 3.9278737 5.708639 5.5828367 4.7130694 3.753854 10.9689188 5.1104976 16.9776409 4.904515 2.2312059-.0781313 4.2117541-.0958884 6.1216946-.1740197 2.640731-.9588842 5.2638101-1.9674883 7.840994-3.0897379-5.9981309.1704683-12.0139138-.2272911-17.941437-1.1790724 3.7775162-.529162 7.5585629-1.0547726 11.3360792-1.5839346-4.6742351-.6001905-9.2425585-2.0349653-13.4260695-4.2190904 1.016752-.2166368 2.0546864-.2983195 3.0926208-.3196281-6.3370484-1.4454291-12.5434723-3.4697401-18.5062994-6.0729331 10.2240067.1491598 20.4691957-1.3601949 30.2201302-4.4534843-5.3979649.4048622-10.8700679-.227291-16.035027-1.8538427 3.9964004-.0603742 7.9963311-.1242998 11.9962619-.184674-4.1729198-.7848645-8.2752319-1.9532826-12.2363284-3.4839459 3.149107-1.1044925 6.2982141-2.2125364 9.4508515-3.3170289-3.5727537-.3125253-7.141977-.621499-10.7147307-.9340243 2.7219299-.6072933 5.4438598-1.2145866 8.1657898-1.8218799-2.3477087.0745799-4.7165998-.5611248-6.7183303-1.8005714 3.1420462-2.9441296 6.9407448-5.1602175 11.0218745-6.492001-6.0687387.134954-12.2186764 2.8269326-16.5751765 7.08864-2.6830957 2.6245016-4.7060086 5.8989135-7.5903364 8.2925725-4.5400803 3.7716111-10.66883568 4.9187207-16.53987265 5.3484428 5.65921362 1.7366458 10.10044305 5.6254539 14.35103145 9.7628616z"/><path d="m85.0549839 106.006618c1.8851247-5.334896 2.207624-10.4413092 1.5958727-15.7254313-1.3099455 5.6939407-3.2249928 11.2246793-5.7617656 16.4036263-.0299226-4.457231-.06317-8.9144622-.0930926-13.3680668-1.3631413 4.61318-2.7262826 9.2263598-4.0927487 13.8359138.1097163-4.080054.2161078-8.1564799.325824-12.236533-3.2249929 5.86077-5.2264833 12.515789-5.8149614 19.319505-1.4761823-6.509952-2.3971339-13.168598-2.746231-19.8598854-.7048438 4.7002212-1.0439668 9.4657234-1.0107195 14.2312254-.6915448-4.482619-1.3797649-8.9616101-2.0713098-13.4442285-.7347664 4.018399-1.00407 8.1383455-.7912869 12.2292795-.8644311-3.855197-1.7255375-7.710394-2.5866438-11.5655908-1.1004873 4.5877928-1.6224707 9.3424148-1.5393523 14.0861568-2.3672113-6.285095-3.8433936-12.9727557-4.352078-19.7438304-1.0439668 5.0556391-1.3564919 10.2926134-.9209516 15.4534274-.9575237-4.740115-1.9150473-9.4802297-2.872571-14.2203447-.5120092 1.3926581-.9442247 2.8179566-1.366466 4.2432552-.0764689 1.7263158.0299226 3.4925254.2892519 5.5923925.5618802 4.587793 2.4603039 9.059531 5.6653483 12.091464 2.1710519 2.056347 4.8441388 3.390978 7.0717112 5.367537 3.4577244 3.07908 7.3410148 7.616099 7.7034109 12.472269 1.4163371-9.541885 10.1803384-16.14613 13.3687592-25.162141z"/><path d="m107.538661 45.3339613c-5.224204-.9333471-10.6215099-.9533474-15.8526381-.0566675 6.224731.4100061 12.3871451 1.673358 18.2483631 3.7333884-6.827124-.836679-13.7442613-.9800144-20.5990818-.4300063 8.7173929.90668 17.3413108 2.6600392 25.6951908 5.2234104-7.526454-.6366761-15.0840672-.9000133-22.6382178-.7900117 4.8156845.8766796 9.6313688 1.7533592 14.4470538 2.6300388-4.798375.0600009-9.593287.3633387-14.3605031.9133468 8.0561451 1.6000236 16.3684801 1.986696 24.5457971 1.1400168-9.572515 1.5500229-19.2800486 2.3467013-28.9875823 2.3867019 6.6194024 1.7666927 13.5503873 2.4433694 20.4017463 1.986696-2.149921.45334-4.299842.90668-6.449763 1.36002 2.25032.0166669 4.504102.0333339 6.754421.0500008-1.973357 1.1833508-4.157898 2.0400301-6.42899 2.5133704 7.256416.3933391 14.595921-.6800101 21.405735-3.1267128-8.997818 4.8234045-19.082713 7.7501143-29.3510954 8.5134589 4.2894559.5033408 8.6585384.383339 12.9099124-.3533385-2.714232 1.8166934-5.972003 2.850042-9.2747803 3.006711 1.589072.0466673 3.1746823.0900013 4.7637543.1333353-3.1608342 1.5766899-6.6090166 2.6100385-10.1402878 3.0433782 4.4625574.5800086 8.9908938.6300093 13.4672988.1900028 5.154964-2.2000324 9.832167-5.786752 14.405509-10.6268234 4.490254-4.7500701 8.049221-10.1201493 13.53654-13.7768699-4.403703.0466673-8.81433-.6233425-12.986077-1.9733625-6.349364-2.056697-12.044404-5.630083-18.224129-8.1234531-1.332882-.540008-2.714232-.923347-4.1163541-1.2066845 3.0846691.8666795 6.0620151 2.0766973 8.8281781 3.6400537z"/></g><path d="m106.660453 12.4449495c2.112516-1.868305 4.225032-3.73660996 6.337547-5.60491494-1.410872 1.83364839-2.821744 3.66414614-4.228824 5.49464394 1.532238-.9388783 2.814159-2.15816 3.728192-3.5444234-4.528445 6.310649-9.394437 12.4543163-14.5790135 18.4057971 5.9582805-3.1190926 10.8735775-7.5929427 14.0670035-12.8071834-2.279393 3.3963453-3.936789 7.0856963-4.892541 10.89477 2.495575-3.3175803 4.676359-6.7989918 6.515803-10.400126-1.687737 3.320731-2.821745 6.8336484-3.348925 10.4095778 2.882427-4.1178323 5.165613-8.5255198 6.792667-13.0938878-1.926675 6.0964083-2.31732 12.5267801-1.134008 18.7523629 1.058155-2.6717076 2.055626-5.3560176 3-8.0560806-.519595-7.4165091-2.283185-14.62822937-.675094-21.94391935-2.271808 1.92816635-4.763591 3.67359798-7.414665 5.23944549-1.388117 2.08569629-2.776233 4.16824196-4.168142 6.25393826z" fill="#dc484a"/><path d="m119.520704 91.5127052c.792107 4.2857143 1.587765 8.5714288 2.383424 12.8571428-1.246769-3.853622-2.884263-7.6016216-4.887617-11.1831857.483078 4.0744693 1.754711 8.0753227 3.740306 11.7625097-2.536162-2.230876-5.072324-4.464953-7.608486-6.6958288 2.031771 2.3749068 3.768722 4.9514568 5.171781 7.6688358-4.844993-2.787794-9.689985-5.575589-14.53853-8.3633839 4.717119 3.0022409 9.341885 6.1229059 13.867193 9.3523949-4.987074-1.869199-9.974149-3.738397-14.961223-5.607596 3.047656 2.355702 6.095313 4.711405 9.142969 7.070308-4.472027-2.333297-9.441341-3.882428-14.5562896-4.532167 3.2074986 2.176465 6.4114456 4.35613 9.6189446 6.535795-4.681599.009602-9.3596451-.598528-13.8423289-1.805185 7.2426249 3.14307 14.9008389 5.511575 22.7615199 7.038301-5.178885 1.027419-10.65259.832178-15.724914-.553718 2.834534 1.792382 6.12373 2.675771 9.530143 3.354316.344549-.048011.678441-.115225 1.02299-.147232 6.045584-.544116 13.785495-.294463 18.410261 3.248693-5.125604-6.414168-5.143364-14.959991-6.645881-22.9680996-1.012333-2.3268964-1.985594-4.6697963-2.884262-7.0319002z" fill="#dc484a"/><path d="m23.0716222 51.3607873c-3.8397606-4.3472884-6.5590093-9.5988664-7.8435837-15.1619219 3.3720079 2.7430117 6.7405252 5.4860234 10.1125332 8.2290352-1.7627992-2.6023445-3.5221077-5.2013397-5.2814162-7.8036842 2.3666888 1.3296406 4.740359 2.6592812 7.1105385 3.9889218-2.1083776-2.0061832-4.2132646-4.0123663-6.3181516-6.0185495 4.628657 3.4563957 9.9310173 6.0821847 15.5510306 7.6965091-4.8834774-3.1315213-9.7634641-6.2596934-14.6469415-9.3878655 4.1329788 1.1856241 8.2659575 2.3745974 12.3989362 3.5602215-2.5098072-1.8018807-5.0161237-3.6071106-7.5259308-5.4089914 3.9654255 1.1822749 8.066988 1.9525957 12.2069481 2.290867-2.0280918-1.7516424-4.3843085-3.1482674-6.9220412-4.1027953 4.1818484-.1875564 8.3636968-.3751127 12.5455452-.5660183-1.8430851-.9846709-3.7245678-1.8990081-5.623504-2.7865516-2.1363032.2210486-4.2865691.545923-6.4403258.9578771-5.0754654.9679248-10.126496 2.230581-15.2962101 2.4181373-5.1732048.1875564-10.59424867-.8138606-14.63996011-3.9051913 6.63929521 5.827644 9.71459441 13.9896947 13.20877661 21.9943321 2.4679189 1.3363391 4.9358378 2.6726781 7.4037566 4.0056679z" fill="#dc484a"/></g></svg>