<svg height="120" viewBox="0 0 115 120" width="115" xmlns="http://www.w3.org/2000/svg"><g fill="none" fill-rule="evenodd" opacity=".948289" transform="matrix(-.98480775 -.17364818 .17364818 -.98480775 160.310972 124.45689)"><path d="m165 105c-30.183623-8.6546942-57.999504-23.520465-77-42 14.863312 1.4245826 27.206124 9.056367 40.032668 16.6364894 12.827817 7.5788309 26.22211 15.0724192 36.967332 25.3635106z" fill="#193837"/><path d="m121.187997 80.9780204c-5.266045-2.9025713-10.75752-5.3879535-16.241267-7.8682634 4.692809 3.7001761 9.697356 7.0174004 14.945367 9.9072913-7.922255-4.206129-15.894749-8.4464953-22.892097-14.0170483 5.197772 4.7780204 10.450936 9.5674533 15.947564 14.0208524 15.441312 9.2314195 33.288929 16.759845 52.052436 21.9791476-10.873456-10.1038394-24.427597-17.4610778-37.408502-24.9020077-.998333-.5731596-1.992801-1.1437831-2.985982-1.7144065-6.979313-2.9875309-13.928999-6.0460726-21.173675-8.3260303 6.073728 3.3882353 11.999318 7.0326171 17.756156 10.9204649z" fill="#436055"/><path d="m136.956417 88.3001261c1.655068.3669609 3.305031.7566204 4.938405 1.1979823 2.457718.6620429 4.810798 1.5233292 7.105178 2.5018916-5.932466-3.8423707-12.125252-7.3656999-18.236368-10.8675914-2.557252-1.1172762-5.143853-2.1689786-7.763632-3.1324086 3.358626 2.1979823 6.715975 4.3959647 10.074601 6.593947-2.818846-1.814628-5.885251-3.2534678-9.090748-4.2648171 4.324613 2.6569987 8.647951 5.3139975 12.972564 7.9709962z" fill="#8b9268"/><path d="m112.947564 83.0208524c15.441312 9.2314195 33.290217 16.759845 52.052436 21.9791476-1.075623-.999225-2.183451-1.964213-3.308025-2.911448-10.668636-6.7726661-22.335606-11.9311022-33.942032-17.0324759-2.245283-.9878126-4.493142-1.9756252-6.804122-2.8023952-1.447905-.5173653-2.924149-.9738641-4.29734-1.6586122-1.764795-.8800282-3.31833-2.1138429-4.887323-3.2994717-1.350004-1.0195139-2.727059-2.0022543-4.122149-2.9621697-.897856-.4083128-1.794423-.8178937-2.692279-1.2236703 4.692809 3.698908 9.697356 7.0174004 14.945367 9.9072913-7.922255-4.206129-15.894749-8.4464953-22.892097-14.0170483 5.197772 4.7780204 10.450936 9.5674533 15.947564 14.0208524z" fill="#193837"/><path d="m55.795577 0c-1.2527968 1.14233472-2.5171343 2.27062957-3.795577 3.38488455 3.8507155 8.34989245 7.7027133 16.62448015 11.5918974 24.67442995 13.6743356 28.304374 26.9370563 52.7860749 57.4081026 60.9406855-26.369002-8.0308045-41.2345846-37.3447727-53.0303661-62.4876237-3.8276343-8.1609924-7.9386545-17.19373296-12.1740569-26.5123763z" fill="#193837"/><path d="m170 46c-43.528462-5.7444374-85.0109663-20.4634356-115-41.90565767 20.8705648-1.05318961 39.4826377 6.89512077 58.756638 14.67281697 19.27272 7.778979 39.316196 15.3232033 56.243362 27.2328407z" fill="#193837"/><path d="m105.40375 20.9951969c-7.7675719-3.0276619-15.7571114-5.4209936-23.7377212-7.8091365 7.1475954 4.2651895 14.6421738 7.9297759 22.3804052 10.9431686-11.6507203-4.3287522-23.3792571-8.6925288-34.046434-15.129229 8.0520475 5.6817305 16.181911 11.3712443 24.5771144 16.5366897 22.9212906 9.8885461 48.7817326 16.8947165 75.4228856 20.4633103-16.865672-12.0431932-36.836331-19.6720191-56.039036-27.5382323-1.477229-.6044946-2.949355-1.2089892-4.418931-1.8121867-10.1211885-2.8006521-20.216864-5.7076745-30.556193-7.45759558 8.966705 3.54654138 17.7841562 7.48613398 26.41791 11.80321148z" fill="#436055"/><path d="m106 17c5.09426 2.4385831 10.188519 4.8784682 15.282779 7.3170513-4.27-2.0050283-8.805352-3.4228697-13.44582-4.2053516 9.200176 4.0803628 18.400352 8.1607255 27.600528 12.2423903-7.274766-2.7328275-14.686696-5.0841789-22.197332-7.0449403 9.01302 4.8771662 18.442656 8.9588309 28.149181 12.1864057-12.185715-2.1599623-24.049673-6.1869445-35.065016-11.902577 4.723791 3.6350902 9.719345 6.900422 14.921283 9.7816737 15.591716 4.7990482 32.019229 8.3859657 48.754397 10.6253479-15.868606-11.3179941-34.474062-18.7522223-52.620598-26.1330699-3.764933-1.0676125-7.556785-2.0323696-11.379402-2.8669301z" fill="#8b9268"/><path d="m161 75c-39.381689-11.8785162-75.5126922-31.7140374-100-56 19.4592028 2.18744 35.4675188 12.3242007 52.112369 22.4058912 16.646133 10.0804099 34.037884 20.0634863 47.887631 33.5941088z" fill="#193837"/><path d="m104.966796 42.3388956c-6.7358062-3.9457746-13.7709811-7.3460209-20.7972005-10.7411327 5.9758687 4.9816367 12.3624104 9.4665217 19.0739085 13.3956096-10.1337735-5.7248389-20.3340735-11.4946037-29.243504-18.9933725 6.6027528 6.4128464 13.2758702 12.8436632 20.2713851 18.8367737 19.7327769 12.5176298 42.6127669 22.8492954 66.7286149 30.1632263-13.806803-13.5611935-31.144626-23.5668256-47.739144-33.670011-1.275517-.7765757-2.547196-1.5531514-3.817596-2.3271598-8.946532-4.0985226-17.8534037-8.2881805-27.1568756-11.4599466 7.7669662 4.6029758 15.3356323 9.5409703 22.6804116 14.796013z" fill="#436055"/><path d="m105.98587 39c4.359737 2.9835599 8.719474 5.9671198 13.07921 8.9506797-3.659962-2.4647356-7.654991-4.437549-11.84204-5.8492634 7.921757 5.0947263 15.843513 10.1894527 23.765269 15.2854601-6.33792-3.579247-12.858839-6.8356701-19.531826-9.7500534 7.629217 5.7890542 15.763612 10.9196498 24.282045 15.3174863-10.978598-3.8034304-21.378561-9.2530069-30.738528-16.1066116 3.837805 4.0135221 7.981037 7.7336844 12.374281 11.1361469 13.741612 6.7139705 28.440742 12.4530638 43.625719 17.0161554-13.022507-12.673404-29.165002-22.2338624-44.888664-31.6777454-3.332627-1.5385381-6.705205-2.987403-10.125466-4.3222546z" fill="#8b9268"/><path d="m71 28.1296166c13.1917078 11.2369352 28.8429084 21.3157715 46 29.8703834-11.099978-13.422003-27.7951077-24.4758755-43.2179084-31.882775-1.2374888-.5946293-1.6813847 1.2269097-2.7820916 2.0123916z" fill="#193837"/><path d="m152 91c-34.624153-15.4289122-65.3817716-37.8228615-85-63 17.5249715 4.2293688 30.999835 15.395519 45.062391 26.5822189 14.062557 11.1879841 28.818616 22.3682622 39.937609 36.4177811z" fill="#193837"/><path d="m104.820424 54.563672c-5.7886643-4.3991266-11.9176107-8.3294411-18.0388233-12.2533336 4.9676044 5.2635389 10.3721622 10.1186334 16.1402033 14.4984937-8.7339098-6.4220826-17.5245331-12.8929731-24.921804-20.8088321 5.3852235 6.6532776 10.8323165 13.3309591 16.6300033 19.6425819 16.8491247 13.7650919 36.8651937 25.8797086 58.3699967 35.3574181-11.242202-14.0502324-26.161772-25.2310782-40.380154-36.4196306-1.094316-.8592746-2.183477-1.7185493-3.271349-2.5752551-7.820046-4.7908736-15.5924003-9.6600967-23.8493993-13.6405035 6.6690155 5.1209687 13.1176208 10.5270779 19.3213263 16.1990612z" fill="#436055"/><path d="m106.792824 52c3.647159 3.2104937 7.294318 6.4197165 10.940196 9.6302102-3.066638-2.6588887-6.493379-4.9059801-10.161042-6.6637445 6.663819 5.5351149 13.326356 11.0702298 19.990175 16.6053446-5.387441-3.9743523-10.979923-7.674173-16.749253-11.0816685 6.317813 6.1362881 13.171295 11.727326 20.459206 16.6930422-9.60487-4.6988105-18.493379-10.8338276-26.272106-18.1343328 3.052542 4.0900114 6.41777 7.9474336 10.04827 11.5430341 11.800085 7.6640052 24.586929 14.5450872 37.95173 20.4081147-10.46604-13.018641-24.138402-23.5474336-37.441692-33.9237087-2.871849-1.775558-5.789833-3.4761284-8.765484-5.0762913z" fill="#8b9268"/><g fill="#193837"><path d="m54.0011136 121c-.0970982-30.1115131 6.1573172-59.6539193 18.0952109-82 2.6630786 14.0895536-1.066785 27.4667644-4.6179879 41.2787985-3.5524976 13.812034-6.8719596 28.1253935-13.477223 40.7212015z"/><path d="m64.6197739 74.3895888c1.2908027-5.6072482 2.1438113-11.3084222 2.994311-17.0018764-2.1613732 5.2933041-3.8949876 10.7705999-5.1782638 16.3559749 1.7950813-8.3902857 3.6077245-16.8371843 6.8792632-24.7436873-3.0118729 6.0434247-6.0212369 12.1408889-8.6618002 18.373452-4.4368989 16.6313194-6.7099158 35.016351-6.6522123 53.626548 6.400073-12.672278 9.6164171-27.0738219 13.0585575-40.9684233.2646836-1.0692114.5293671-2.1345628.7927962-3.1986276.9295285-7.2001286 1.9293047-14.393824 2.1475745-21.6479923-1.5241256 6.4757412-3.3192068 12.8858629-5.3802261 19.204632z"/><path d="m67 75c-1.2051991 3.6731543-2.4090737 7.3463087-3.6142728 11.019463.9827008-3.0754366 1.5336489-6.2785906 1.6356273-9.4945164-1.9521576 6.6042702-3.9029908 13.2085404-5.8551484 19.8128106 1.2012259-5.176389 2.1256533-10.4128051 2.7693091-15.6811506-2.5189985 6.5493517-4.4499658 13.3094372-5.7624408 20.1793594.3377206-8.4548959 1.9998358-16.8599824 4.9108551-24.8423241-2.06738 3.5301108-3.8539882 7.2109282-5.3545273 10.9964739-1.8422328 11.0028597-2.7666602 22.4616712-2.7282528 34.0098842 6.3279573-11.779382 9.7078122-25.0607213 13.0942891-38.0278757.3814256-2.6488603.6900096-5.3066608.9045615-7.9721243z"/><path d="m63.131509 123c-9.388938-36.8809843-10.8819605-74.9893276-3.2509567-106 7.5731346 16.4642905 7.1590492 33.9932316 7.0947502 52.0000483-.064299 18.0068168.3073491 36.5581297-3.8437935 53.9999517z"/></g><path d="m62.1878449 62.574212c-.0966296-7.2726278-.7730369-14.5246496-1.4494443-21.7663684-1.0938473 7.1631584-1.5937445 14.4164681-1.4945381 21.6620506-.3156567-10.8413283-.6274483-21.7560655 1.060349-32.4698942-1.931304 8.349291-3.8445704 16.7642636-5.2514977 25.2268875-.4779945 21.7650806 2.3010733 44.9983385 8.0795246 67.7731125 4.1589389-17.533125 3.7865927-36.1815488 3.8510125-54.2826262.0051535-1.3921924.0115955-2.7805212.0167491-4.1662743-1.0397347-9.1130006-1.9879934-18.2363042-3.9386233-27.1908962.0708617 8.4111089-.2216039 16.8260815-.8735318 25.2140087z" fill="#436055"/><path d="m65.625 62c-.2961931 4.8972267-.5923863 9.7931639-.8898561 14.6903906.2170381-4.0913376-.1123491-8.2136213-.9766713-12.2172782-.2808728 8.7409952-.5617456 17.4819903-.8413417 26.2229855-.1685237-6.7539951-.6804782-13.4976748-1.5333101-20.1988036-.9677344 8.8428596-1.1771124 17.7695316-.6217502 26.648495-2.1895311-10.5461867-2.8010678-21.4250444-1.8116296-32.1556185-1.3584029 4.9784603-2.3376276 10.0574956-2.950441 15.18295 1.1949861 14.1410967 3.6117688 28.5736032 7.1916202 42.8268792 3.8594476-16.436269 3.7815692-33.8524985 3.8083798-50.8819016-.3613045-3.3847341-.8119777-6.7604422-1.375-10.1180984z" fill="#8b9268"/><path d="m100.460596 150c-11.4697881-29.413382-16.6288999-60.6568442-13.6149595-87 7.8775177 12.7797842 9.3539154 27.2652496 11.1640629 42.108523 1.8101476 14.844556 4.0317506 30.090525 2.4508966 44.891477z" fill="#193837"/><path d="m93.5218478 100.526643c-.8228263-5.9558514-2.1114988-11.8346874-3.3989055-17.7045383-.1506405 5.9892247.1860853 11.9912852 1.0076457 17.9240323-1.3646258-8.8606128-2.7330492-17.7828375-2.4634153-26.746137-.7088965 7.0494688-1.3950071 14.1502812-1.6671727 21.2395413 1.8393332 17.9047777 6.4623512 36.6772617 13.46397 54.7604587 1.570965-14.813897-.6367409-30.073198-2.4355658-44.930737-.1392476-1.142394-.2759633-2.280937-.4126791-3.41948-1.7735071-7.3677988-3.4735928-14.7535679-5.9661236-21.8980223.9177678 6.8941546 1.5418499 13.8268169 1.8722463 20.7748823z" fill="#436055"/><path d="m96.1230636 100c.2635174 4.0255.5270348 8.049721.7892605 12.073943-.2454329-3.359905-.9494378-6.686596-2.0861797-9.86126.6768781 7.156728 1.3537563 14.314733 2.0319261 21.472738-.8448059-5.490828-1.9737972-10.936941-3.3830988-16.314068.1162577 7.312586.8732245 14.614952 2.2605662 21.798507-2.9219432-8.374214-4.5663437-17.182789-4.8595714-26.034799-.6122905 4.200521-.8990594 8.444478-.8745162 12.688435 2.4685383 11.407073 5.9859793 22.926568 10.4515667 34.176504 1.501016-13.804998-.378484-28.00092-2.1313914-41.890235-.6536265-2.723695-1.3795912-5.429505-2.198562-8.109765z" fill="#8b9268"/><path d="m77.8932934 133c-7.2671608-30.733617-7.9748677-62.3745558-1.2214687-88 6.0456922 13.7648978 5.4587193 28.3051203 5.1555998 43.2451797-.3031194 14.9400593-.2530277 30.3401873-3.9341311 44.7548203z" fill="#193837"/><path d="m77.0027803 82.9814126c.0220841-6.0191381-.4429808-12.0292827-.9080456-18.0317188-1.0132699 5.9125023-1.5341945 11.9085145-1.5523814 17.9058115-.1117195-8.9753892-.2208409-18.0124472 1.3406339-26.8555053-1.7316521 6.8825021-3.4490146 13.8189645-4.7454804 20.8029633-.7027936 18.0060234 1.2964658 37.2711197 5.8120119 56.1970367 3.7231172-14.45107 3.6724537-29.890127 3.9790328-44.8679525.0233831-1.1524369.0480653-2.3010195.0714485-3.4470326-.7417655-7.5557205-1.4068862-15.1191497-2.9138004-22.5566716-.0584578 6.9621578-.4195976 13.921746-1.0834193 20.8530693z" fill="#436055"/><path d="m80.0257155 83c-.3060971 4.0121883-.6109498 8.0243766-.9170469 12.0378398.2301949-3.3530522.0186645-6.7379775-.6258814-10.034933-.3446702 7.1663522-.6880962 14.3314295-1.0315222 21.4965072-.046039-5.540824-.3695562-11.0803717-.9693073-16.5880468-.900871 7.2390229-1.1883036 14.5583658-.8598092 21.8483858-1.6275405-8.680963-1.9771879-17.6118107-1.0340108-26.3985923-1.164662 4.0644602-2.0244712 8.2168902-2.5881377 12.4113927.7764413 11.6158396 2.5383658 23.4866646 5.2422231 35.2274466 3.3396931-13.428783 3.5089175-27.714315 3.7577769-41.6811158-.2463708-2.7818859-.5649108-5.5573971-.9742845-8.3188842z" fill="#8b9268"/><path d="m173 141c-27.613928-15.194774-51.524173-35.851729-66-58 14.230279 4.7414862 24.608522 14.9067514 35.474025 25.132181 10.864224 10.22543 22.303951 20.495663 30.525975 32.867819z" fill="#193837"/><path d="m136.819522 108.321071c-4.465006-4.06432-9.245537-7.763729-14.019629-11.4579794 3.725775 4.7232254 7.841771 9.1382734 12.291323 13.1845414-6.753531-5.952063-13.54956-11.9505456-19.091216-19.047633 3.970468 5.9043538 7.991163 11.835786 12.326095 17.487409 12.9301 12.627503 28.591749 24.109982 45.673905 33.512591-8.279643-12.462454-19.799538-22.807646-30.739897-33.107706-.842259-.791718-1.680655-1.582145-2.517764-2.371284-6.114752-4.533677-12.18443-9.1305367-18.719024-13.0233613 5.142419 4.725804 10.080069 9.6733923 14.796207 14.8234223z" fill="#436055"/><path d="m137.970272 106c2.755589 2.951897 5.509909 5.903794 8.265498 8.855691-2.320429-2.448103-4.964374-4.577953-7.840488-6.313529 5.058257 5.117824 10.116513 10.234359 15.173501 15.350895-4.124502-3.717252-8.436771-7.220616-12.915238-10.489478 4.732205 5.595848 9.942704 10.772942 15.551571 15.457838-7.524585-4.628203-14.360273-10.407015-20.205116-17.083894 2.206247 3.647674 4.685263 7.121403 7.398985 10.395419 9.109176 7.268289 19.082328 13.954188 29.601015 19.827058-7.637498-11.660702-18.073721-21.465999-28.219414-31.116679-2.222741-1.694345-4.489885-3.328131-6.810314-4.883321z" fill="#8b9268"/><path d="m177 113c-28.786219-5.468298-55.854969-16.7495941-75-32 13.951548.1203913 26.04443 6.0651855 38.585292 11.923805 12.539577 5.8598867 25.601584 11.59558 36.414708 20.076195z" fill="#193837"/><path d="m135.055223 94.1949018c-5.042653-2.2758652-10.257388-4.1453259-15.467025-6.0122466 4.583767 3.0556539 9.419921 5.7341135 14.444728 7.9985486-7.572902-3.2728262-15.194242-6.5735928-22.032926-11.1812038 5.130606 4.0145144 10.310925 8.035379 15.687545 11.7260398 14.844979 7.3343312 31.752398 12.9071532 49.312455 16.2739602-10.737944-8.498934-23.709137-14.2470177-36.162807-20.1195628-.957288-.4508549-1.912027-.9017099-2.865491-1.3525649-6.614339-2.2187146-13.208283-4.5060099-20.008727-6.050347 5.818936 2.6594094 11.523151 5.5690116 17.092248 8.7173765z" fill="#436055"/><path d="m136.116395 92c3.248927 1.8377057 6.49912 3.6767231 9.748048 5.5157405-2.725152-1.515025-5.647669-2.6470307-8.662542-3.3579776 5.880458 3.1035059 11.760916 6.2070121 17.641374 9.3105171-4.667171-2.122346-9.440615-3.9967799-14.293764-5.6114949 5.727374 3.6281899 11.758385 6.7421889 18.003209 9.2947769-7.913568-1.937396-15.542475-5.111734-22.55272-9.3839732 2.961737 2.6247322 6.114512 5.0133552 9.417842 7.1527542 10.046626 3.841999 20.687876 6.906154 31.582158 9.079657-9.979572-8.220487-21.902428-13.948724-33.526707-19.6218698-2.429105-.8670403-4.880983-1.6658717-7.356898-2.3781302z" fill="#8b9268"/><path d="m141 139c-21.668346-19.831815-38.773648-43.78214-47-67 11.849756 7.4287386 19.009038 18.9091659 26.596949 30.550222 7.586624 11.64234 15.685545 23.450449 20.403051 36.449778z" fill="#193837"/><path d="m114.933775 100.94208c-3.127021-4.5879019-6.615643-8.9196459-10.101692-13.2450178 2.316312 5.0135572 5.050846 9.8372262 8.167572 14.4072858-4.771602-6.7671548-9.570227-13.5827378-12.999655-21.104348 2.276419 6.1184769 4.594018 12.271363 7.255202 18.2432818 8.863752 14.0491752 20.437589 27.6752432 33.744798 39.7567182-4.716268-12.892004-12.813063-24.602624-20.397696-36.148843-.582939-.888269-1.16459-1.773989-1.744955-2.65716-4.507799-5.3652962-8.960265-10.7751971-13.985374-15.6600382 3.588996 5.3232406 6.947648 10.7994112 10.0618 16.4081212z" fill="#436055"/><path d="m117.049604 99c1.857394 3.253699 3.714787 6.507398 5.57218 9.761097-1.572132-2.705438-3.507556-5.198233-5.739754-7.389996 3.475576 5.701659 6.951153 11.40588 10.42673 17.10882-2.933197-4.2439-6.085138-8.336643-9.437911-12.256453 3.076467 6.059053 6.676126 11.850381 10.747808 17.288157-5.821623-5.811824-10.768276-12.503683-14.618657-19.777109 1.207561 3.754564 2.700384 7.414334 4.450325 10.948569 6.68508 8.527509 14.280949 16.725805 22.549675 24.316915-4.390202-12.133479-11.726394-23.226798-18.832331-34.116441-1.648884-2.011145-3.350215-3.976174-5.118065-5.883559z" fill="#8b9268"/><path d="m0 120c11.7508538-43.7937907 32.2723093-84.2481408 58-112-1.7942464 21.5261325-12.3565549 39.4913965-22.838865 58.1569903-10.48358 18.6655939-20.8350994 38.1525307-35.161135 53.8430097z" fill="#193837"/><path d="m34.0528626 56.4920119c4.1168844-7.5134278 7.6249968-15.3411393 11.1279935-23.1586303-5.2730396 6.7136648-9.9897434 13.8617057-14.0874439 21.3483043 5.9585476-11.3001647 11.9656946-22.6731512 19.9065878-32.6816859-6.8218271 7.443161-13.6602804 14.9642542-20.0101813 22.8277379-13.1052236 22.0433059-23.7190862 47.4747448-30.9898187 74.1722621 14.4289189-15.571103 24.8547784-34.9097794 35.412368-53.4333619.8121223-1.4244978 1.6229657-2.8438854 2.4325301-4.2619954 4.2140833-9.9459334 8.5304812-19.8509845 11.7188605-30.1623049-4.8036713 8.6670794-9.979512 17.1271913-15.510896 25.3496741z" fill="#436055"/></g></svg>