<svg width="85" height="98" viewBox="0 0 85 98" xmlns="http://www.w3.org/2000/svg"><g id="Page-1" stroke="none" stroke-width="1" fill="none" fill-rule="evenodd"><g id="0-1-2-Koloa@2x" transform="translate(-585 -904)"><g id="2nblock" transform="translate(0 768)"><g id="BG" transform="translate(585 136)"><g id="Flower" transform="translate(-61 -44)"><g id="Group-25" transform="rotate(10 11.46 130.997)"><path d="M133.119598,116.345338 C128.698138,112.687818 121.298475,112.430106 115.518655,112.991785 C111.79675,113.358529 108.214077,114.653694 104.481985,114.908101 C98.977233,115.284757 93.4588978,113.305665 89.0781886,110.044623 C84.6940835,106.780278 82.2524324,104.203163 79.8005936,99.3925494 C76.2518796,105.67344 72.387347,109.046817 67.3546253,114.283647 C62.3219036,119.517172 55.7304644,123.647163 48.4123029,124.469858 C45.1794075,124.833297 41.912553,124.545849 38.6558862,124.595409 C31.4090386,124.704441 24.2063377,125.18352 17.8084648,128.490817 C22.5321597,123.187908 26.8585345,117.065609 27.5512978,110.080967 C27.9927647,105.637096 26.9298484,101.186618 26.9977664,96.7262269 C27.1539777,86.3450803 33.2767829,75.5476305 43.0909298,71.470503 C35.1784861,68.7215806 28.1931227,63.4979674 23.4286769,56.7644293 C15.7879051,45.9669796 14.0593927,31.6639931 4.11959752,22.8158993 C8.05544399,25.865485 13.3292745,26.853379 18.3619962,26.6683554 C23.3913221,26.4833317 28.3051873,25.2377263 33.2428239,24.2828723 C46.3713679,21.7387975 59.3742636,22.0923248 69.1918064,35.2389137 C72.288866,27.6760733 78.2690434,21.3489263 86.018484,18.2696047 C93.7645287,15.190283 102.081084,13.4953345 109.579228,9.88076599 C114.510073,7.50189089 119.023222,4.31353747 122.870776,0.490817354 C121.373184,8.4699609 123.149239,16.3235527 123.536372,24.424944 C124.358179,41.7907322 119.794091,54.6234417 105.205311,64.657669 C113.718829,69.4715871 120.245746,74.9628238 124.229135,83.7217097 C128.888308,93.9806085 126.385531,107.246141 133.119598,116.345338 Z" id="Fill-1" fill="#BC3736"/><path d="M100.836612,110.728711 C96.6026262,106.107668 93.6689172,100.281421 92.465676,94.101472 C94.4452018,95.6014277 96.6899582,96.7411321 99.0608609,97.4485348 C97.1201493,95.5195524 95.5190622,93.2434187 94.3481662,90.7609592 C96.7869938,92.4606907 99.6786541,93.4890446 102.63177,93.6986454 C99.9277121,90.9574599 96.9422507,88.5044755 93.7368421,86.3888174 C98.1778371,87.3614961 102.618832,88.3308999 107.063062,89.3003036 C106.251197,88.1867993 105.439333,87.073295 104.627469,85.9597908 C106.76872,86.3658923 108.906738,86.7752689 111.04799,87.1813705 C109.210783,85.3047883 106.872225,83.939108 104.346065,83.2677305 C108.330993,82.2000764 112.649077,82.4620774 116.475513,84.0046083 C115.223754,82.2885017 114.408655,80.2481689 114.124017,78.1357858 C115.275506,79.9730679 116.724571,81.6203992 118.393583,82.9926294 C117.394116,80.8867964 116.79573,78.5975626 116.585487,76.2723037 C112.914307,71.2287844 108.098108,67.4461449 102.29538,64.0303068 C111.969828,57.1069303 117.005974,48.8342486 118.91434,38.6424096 C116.498155,41.8519219 114.081969,45.0614342 111.665783,48.2709465 C112.141257,44.6520576 113.1666,41.1084941 114.686824,37.8007314 C113.483583,39.4742628 112.277107,41.1445192 111.073866,42.8180506 C112.115381,39.6412884 113.409189,36.5529516 114.935882,33.5890653 C112.519696,37.0278284 110.10351,40.4665916 107.690558,43.9053548 C109.340163,38.4983091 111.342331,33.1993388 113.680888,28.0575691 C110.944485,32.5476113 108.007541,36.913203 104.876527,41.1314191 C105.041487,38.8127103 105.649577,36.5234765 106.658747,34.4307435 C104.701863,36.4710763 102.744978,38.5114091 100.791329,40.5484669 C102.085136,38.3181834 103.217218,35.9961995 104.17787,33.5988903 C102.275973,35.347747 100.37731,37.0998787 98.4754129,38.8487354 C100.923944,35.5900979 103.123417,32.1415097 105.047956,28.5389959 C100.623134,33.9722417 95.3832124,38.7177349 89.5578431,42.5593246 C92.7632518,38.2002829 95.9686604,33.8412412 99.1708345,29.4821995 C95.729306,31.699383 92.4430344,34.1687425 89.3475994,36.8608028 C92.3751094,33.9591417 95.143858,30.7791045 97.6053272,27.3730915 C94.8559858,28.823922 92.2521977,30.5531286 89.8424808,32.5312362 C97.6214998,26.6296636 104.339596,19.2969105 109.56658,10.9980288 C102.63177,17.9377803 95.237659,24.4059301 87.4489365,30.3468028 C91.1362885,26.7901392 94.7007288,23.1024751 98.1390229,19.2969105 C94.4063876,22.3655973 90.6737523,25.431009 86.941117,28.4996958 C91.2268551,23.9932785 95.5125932,19.4868613 99.7983313,14.977169 C94.1637986,18.3864571 88.9723951,22.542448 84.3987848,27.3075912 C85.3141538,25.2214082 86.5820853,23.2957008 88.1314201,21.6385445 C86.3459654,22.5850231 84.5605108,23.5347768 82.7750561,24.4845304 C83.9491866,23.0140498 85.1200826,21.5402941 86.2909786,20.0698135 C83.3637386,21.3830935 80.6143972,23.0959251 78.1399899,25.152633 C80.077467,22.3492222 82.4063209,19.8274626 85.0198125,17.6594043 C84.686657,17.7904048 84.350267,17.9115802 84.020346,18.0491308 C76.6391729,21.1014424 70.9431844,27.3730915 67.9933028,34.8695952 C63.1900416,28.1754695 57.5813851,24.8415068 51.5684137,23.5118517 C50.4039867,26.2399371 49.5565426,29.1055731 49.1069445,32.0432593 C47.3732421,30.3206027 46.3964173,27.8414183 46.4837493,25.3818838 C46.2120497,29.6885253 46.5581432,34.034467 47.5026229,38.2395831 C46.270271,35.3935972 45.0346846,32.5476113 43.7990982,29.7049004 C43.504757,33.5071899 43.7764566,37.3553297 44.6077281,41.0757439 C42.495587,38.2494081 40.3866804,35.4197973 38.2745392,32.5934614 C39.6686171,36.8378777 41.8519176,40.8137429 44.675653,44.2525061 C41.6416739,42.5003744 38.6109292,40.7482427 35.5769501,38.999386 C37.9834325,41.6685212 40.6713181,44.0822054 43.5759164,46.1880385 C39.406621,45.2481099 35.4411003,43.3682527 32.0577931,40.7253176 C35.7904284,44.6258575 40.3737423,47.6945443 45.3807782,49.6431767 C37.0130767,48.4477972 28.9235439,45.3037851 21.9143405,40.5255418 C24.9968374,44.9500838 28.6389062,48.9750742 32.7241041,52.4662375 C29.4766467,52.338512 26.2841761,51.0678072 23.8259414,48.9161239 C25.3882143,51.4575337 27.2868771,53.7795176 29.4604741,55.8034753 C27.5521077,54.4901953 25.6437413,53.1736402 23.7353749,51.8570852 C25.4173249,54.4017699 27.3192223,56.7958041 29.4151908,59.0064376 C28.3607375,59.0162626 27.3095187,58.9147372 26.2744725,58.7215115 C30.6863569,64.1776824 36.5731821,68.4122736 43.1327873,70.7833827 C34.5386694,74.4972469 28.9300129,83.8441327 27.9628916,93.322019 C28.4642421,92.7849169 28.9041368,92.1757646 29.3310933,91.5764373 C29.0755663,94.3012477 28.8200393,97.0260581 28.5677467,99.7508686 C30.2529313,97.245484 31.9381159,94.7400994 33.6233004,92.2347148 C34.0243808,93.4759446 34.0114428,94.8514498 33.5844862,96.0861296 C35.133821,95.5097273 36.5893547,94.6680491 37.8669898,93.6069451 C37.3462322,94.5206736 36.8222401,95.4376771 36.3014824,96.3514056 C38.0254812,94.6582241 40.0696975,93.3023689 42.2918122,92.3820904 C40.6130967,94.6713241 38.9376157,96.9605579 37.2589002,99.2497917 C41.5478728,96.2269551 46.1441248,93.6462452 50.9473859,91.5666122 C47.8907652,95.0184755 45.435765,99.0172658 43.7311733,103.320632 C45.2449284,101.3458 46.7554489,99.3709671 48.2692039,97.3961346 C46.189408,100.602372 44.675653,104.185236 43.8217399,107.922025 C46.525798,104.463612 49.2298562,101.005198 51.9339143,97.5500602 C50.0287825,103.058631 48.7543818,108.789903 48.1559958,114.5965 C50.2422607,112.981919 52.3317602,111.377163 54.4212597,109.762582 C53.8034665,111.383713 53.1889078,113.008119 52.5711146,114.629251 C53.6579131,113.636922 54.7479462,112.647868 55.8347446,111.652264 C55.2978144,113.833423 54.2207195,115.873755 52.7360751,117.537462 C55.1716682,116.106281 57.6072612,114.675101 60.0460888,113.247195 C58.3253245,116.459983 56.1387895,119.404219 53.5964573,121.998029 C58.3997185,120.232797 62.7242708,117.02656 66.2434278,113.220995 C71.0369855,108.0301 74.7178685,104.686312 78.0979412,98.4605136 C80.4332641,103.228932 82.7588835,105.783442 86.9346479,109.019154 C87.69476,109.608656 88.5033898,110.142483 89.3314268,110.63701 C88.8980012,109.428531 88.5163279,108.193851 88.1896414,106.946071 C90.547606,107.263747 92.7923624,108.400177 94.4581399,110.119558 C93.1416905,108.527902 92.2327906,106.59237 91.8446483,104.555312 C94.1508606,107.450423 97.323924,109.628306 100.836612,110.728711 Z" id="Fill-2" fill="#771F1C"/><path d="M74.8758384,128.309895 C74.5122608,123.870216 70.6163101,119.722315 67.1473128,116.907313 C64.912478,115.100274 62.2306763,113.880109 60.0525463,112.000125 C56.8370527,109.228227 54.9324398,105.140008 54.3687277,100.945688 C53.8016801,96.7546839 53.911754,93.9960482 55.2693328,89.9840901 C49.8156688,91.5656637 45.8163152,91.3534609 40.1391678,91.5490853 C34.4620204,91.7413941 28.5513827,90.4748089 24.0983911,86.970148 C22.1304022,85.4217311 20.5093131,83.495328 18.7047674,81.757918 C14.688736,77.895165 10.4925835,74.2645086 5.14565795,72.643147 C10.692718,72.2419512 16.483275,71.1709905 20.7728235,67.6497512 C23.4979877,65.414991 25.4092717,62.3579452 27.9443082,59.9076667 C33.8416035,54.2047179 43.2312452,51.4991329 50.8697103,54.5396003 C48.0878413,48.7239189 47.2005786,42.0295854 48.3713651,35.6933441 C50.2459579,25.5341376 57.3107042,16.624938 56.8403883,6.30989522 C57.2806841,10.1428073 59.6089149,13.5479982 62.4574954,16.1673759 C65.3060758,18.7900692 68.681677,20.7562602 71.9138485,22.8981817 C80.5029523,28.5878678 87.4009199,35.8259708 85.3962397,48.4719281 C91.3235552,45.9321265 98.1281268,45.6403477 104.078791,48.1204673 C110.032791,50.6005869 115.519811,54.1549829 121.633919,56.20075 C125.656621,57.5435954 129.906143,58.2100447 134.145658,58.1636253 C128.862108,61.800913 125.433138,67.142454 121.106898,71.8672807 C111.837337,81.9966461 102.157501,86.6783692 88.5783776,84.37398 C90.5296886,91.6684494 91.020018,98.2633128 88.2881826,105.305791 C85.0893669,113.548542 76.2967931,119.586373 74.8758384,128.309895 Z" id="Fill-3" fill="#DC484A"/><path d="M53.2085914,71.5922101 C51.2645914,71.3042101 49.3265914,71.0162101 47.3825914,70.7282101 C49.2725914,71.3042101 51.2405914,71.5682101 53.2085914,71.5922101 Z" id="Fill-4" fill="#BC3736"/><path d="M77.2153032,77.8258257 C79.1487377,80.0709023 81.0856309,82.3159789 83.0225241,84.5643377 C81.4903032,81.7284515 79.9580823,78.8958476 78.4293202,76.0599614 C81.704745,78.5512086 85.3675484,80.5665259 89.2447935,82.0927841 C89.5733736,82.1354537 89.9123299,82.1912524 90.2374513,82.2273574 C87.5742231,80.294097 85.0043809,78.2492393 82.5590532,76.0730905 C85.2741624,76.936329 87.9858129,77.7995675 90.7009221,78.662806 C87.4670022,77.4024121 84.5927911,75.3247316 82.4518323,72.7054756 C86.8790168,73.7328279 91.375376,74.4943159 95.9028639,74.9833749 C92.3230702,73.1682765 88.8850848,71.1070073 85.6200362,68.8225434 C89.739393,68.294097 93.8552911,67.7656507 97.9746479,67.233922 C92.1328396,66.7842502 86.3913348,65.2054756 81.1997692,62.6256069 C84.5858736,61.5851255 87.9754367,60.5413618 91.3615411,59.5008804 C88.1379974,58.782062 84.7933979,58.5621496 81.4972207,58.8575544 C84.3126333,56.9046003 87.4358736,55.3520839 90.7285921,54.2689329 C87.2906066,53.5599614 83.5309586,54.400224 80.7881794,56.4975981 C83.1781673,52.3455194 86.0627547,48.4560226 89.331262,44.8849067 C88.4389076,45.0687141 87.5603882,45.3017557 86.692245,45.5741846 C82.3515289,48.6956288 79.4392717,53.6945347 76.8832644,58.4210117 C77.1288348,55.5326091 77.3744052,52.6442065 77.6199755,49.7525216 C76.0670022,51.6693706 74.8910314,53.8619307 74.1716139,56.1792174 C74.3929731,54.2951911 74.2200362,52.365213 73.6631794,50.54355 C72.8123299,53.090596 71.9649391,55.6376419 71.1140896,58.1879701 C71.0864197,52.4997863 70.2424877,46.8116025 68.6030459,41.3400489 C67.9839319,46.0468323 67.1780459,50.7273574 66.1853882,55.3750598 C65.6977061,53.3006616 64.8399391,51.3083202 63.6639683,49.4997863 C63.7815654,51.0752787 63.9026212,52.6540533 64.0202183,54.2328279 C63.2074149,52.6343596 62.3911527,51.0391736 61.5783493,49.4407054 C61.4918809,50.9702458 61.4054124,52.4997863 61.3224027,54.0293268 C60.8001333,52.1091955 60.2813226,50.1857819 59.762512,48.2656507 C59.5895751,51.4527404 59.4131794,54.6398301 59.2402425,57.8269198 C58.0815654,56.3236375 57.1857522,54.6332655 56.608143,52.8509898 C56.3245265,54.7547097 56.6669416,56.733922 57.5765896,58.4505522 C55.8368445,56.5895019 54.3184586,54.5446441 53.0560192,52.3619307 C53.5367838,54.5577732 54.695461,56.8980358 56.331444,58.5129154 C56.331444,58.5129154 51.5998906,55.900224 48.6945508,52.365213 C49.6733736,54.6726528 50.0538348,56.9997863 51.8247086,58.8312962 C48.6184586,57.6004428 45.564393,56.0052568 42.7524391,54.0884078 C46.1973421,57.5971605 50.3166988,60.5052568 54.8511042,62.6190423 C50.4412134,61.8444253 46.1420022,60.5183859 42.0987377,58.6835938 C45.8237984,62.257992 50.6556552,64.7787798 55.829927,65.8488016 C53.7650605,67.1649942 51.2678518,67.8214493 48.784478,67.7919089 C51.6310192,68.1923465 54.4775605,68.5927841 57.3241018,68.9932218 C52.7066867,72.6529592 46.9513469,75.0063509 40.9746479,75.6759351 C46.5708857,77.4647754 52.8865411,77.1299833 58.2337498,74.7568979 C55.7469173,77.4811868 52.8519537,79.8739658 49.6664561,81.8400489 C53.3223421,80.9899395 56.6773178,79.0172918 59.1088105,76.2897207 C57.7287741,80.3958476 55.5082644,84.2295456 52.6755581,87.5971605 C52.8692474,87.5446441 53.0560192,87.5085391 53.256626,87.4527404 C53.2289561,87.5249504 53.2116624,87.590596 53.1874513,87.662806 C56.3245265,84.8860008 58.7110556,81.3706835 61.0249513,77.9144472 C59.5134828,81.1343596 58.8079003,84.6956288 58.9842959,88.2175106 C59.537694,84.0588673 61.5852668,80.0873137 64.7085071,77.1201364 C62.9964319,81.4494581 62.5537134,86.221887 63.4391503,90.7678388 C64.0271357,86.3991299 65.4210071,82.1288892 67.5342959,78.2065697 C67.717609,81.5741846 67.8974634,84.9417995 68.0807765,88.3061321 C68.7898178,85.2897207 69.4954003,82.270027 70.2044416,79.2536156 C70.7059586,83.6157601 71.2074755,87.9779045 71.7089925,92.3400489 C73.9122086,87.2689329 74.9394537,81.7415806 74.7042595,76.2601802 C75.8975241,80.4319526 77.0907887,84.6037251 78.2805945,88.7754975 C79.5049877,85.1912524 79.1106916,81.1376419 77.2153032,77.8258257 Z" id="Fill-5" fill="#BC3736"/><path d="M61.7937257,62.4204294 C63.2224929,63.1253498 64.7087942,63.7218209 66.2366481,64.2098427 C64.5266025,62.1523187 63.8553696,59.356737 64.4594792,56.8051662 C65.8083376,58.058358 66.7352783,59.7091972 67.0772874,61.4654732 C66.7001184,59.4019242 66.9782006,57.2329384 67.8667851,55.3139885 C68.5060545,58.2300694 68.9375614,61.1853125 69.1581093,64.1526056 C69.5864198,61.3931737 70.8841367,58.7602659 72.8434974,56.6665921 C72.0699814,58.7331536 71.5106207,60.8690021 71.181397,63.0349754 C72.9202098,61.4654732 74.6622189,59.8929585 76.4010317,58.3234563 C75.3110773,60.6189662 73.990986,62.8210893 72.4663285,64.8846383 C74.4416709,63.9236571 76.6119906,63.3181486 78.8238627,63.1132999 C77.3151869,64.6044776 75.6371047,65.9480438 73.8311687,67.1078488 C76.2539997,66.5264401 78.6768308,65.9450314 81.0996618,65.3666352 C79.2809404,66.8969751 77.0147303,67.9513432 74.61747,68.3821279 C77.3855066,68.2224665 80.1311687,67.7736069 82.7937257,67.0385617 C80.8471504,68.5628767 78.5489769,69.6865319 76.1037714,70.3101153 C77.8585659,70.7137876 79.5398445,71.3976207 81.0517166,72.3224521 C78.9868764,72.0874786 76.9252326,71.8525052 74.8603924,71.6175317 C75.6179267,72.4489763 76.3754609,73.2834333 77.1329951,74.1148779 C75.4581093,73.2713834 73.7800271,72.4278889 72.1019449,71.581382 C72.1403011,73.2020964 71.807881,74.8258232 71.1270591,76.3139885 C70.1745477,75.0246469 69.3978353,73.6178186 68.8256892,72.1386908 C68.2151869,73.632881 67.3138171,75.018622 66.1791139,76.2085517 C66.6425842,74.711349 67.1060545,73.2111338 67.5695248,71.7109186 C65.7699814,73.0665347 63.8489769,74.2775518 61.8320819,75.3228825 C62.707881,72.9098858 64.0695248,70.6565505 65.821123,68.7104883 C64.5553696,68.984624 63.2384746,69.0478861 61.9503467,68.903287 C63.1969221,68.5176895 64.4434974,68.132092 65.6900728,67.7464946 C64.3923559,65.9691312 63.0914426,64.1947803 61.7937257,62.4204294 Z" id="Fill-6" fill="#E48A2F"/><path d="M77.1299271,60.5493992 C74.7308697,62.3251839 72.7041612,64.3532108 71.1299271,66.5493992 C73.590257,64.8038835 75.6782382,62.796036 77.1299271,60.5493992 Z" id="Fill-7" fill="#D3C429"/><path d="M63.0007083,76.3560106 C63.9744708,73.317767 65.5892936,70.5089851 67.6991124,68.1888718 C66.0761749,66.7568605 64.5384416,65.2186169 63.1021419,63.5826395 C65.4594586,64.3730078 67.6139082,65.8092684 69.2936485,67.7129511 C69.6709815,65.817767 70.2998698,63.9055857 71.0951092,62.1591268 C70.750235,64.1265489 70.4337621,66.0982203 70.1456907,68.0741409 C72.567925,66.501903 75.2295425,65.3333477 78.0007083,64.6322146 C75.7529398,66.3701749 73.4077951,67.9764072 70.9855609,69.4381636 C71.683424,71.949495 72.0972731,74.5458123 72.2149361,77.1591268 C71.3831806,74.7412797 70.5473678,72.3234327 69.7115549,69.909835 C69.4315982,71.1718746 69.1516415,72.4381636 68.8716848,73.7044525 C68.839226,72.2172004 68.8067673,70.7299483 68.7743085,69.2426962 C67.3866969,72.2936877 65.7313007,74.5628095 63.0007083,76.3560106 Z" id="Fill-8" fill="#D3C429"/><path d="M69.5102001,62.6213442 C68.5622001,60.5623247 67.1702001,58.5489977 65.3642001,56.6213442 C64.7942001,58.7803161 66.3542001,61.0478078 69.5102001,62.6213442 Z" id="Fill-9" fill="#D3C429"/><path d="M74.2201661,67.972611 C73.6484095,67.888611 73.0732086,67.804611 72.4980076,67.720611 C74.4647126,66.940611 76.479638,66.532611 78.4980076,66.508611 C77.9503613,67.396611 77.2063888,67.858611 76.4658607,68.020611 C75.7218882,68.188611 74.9675829,68.080611 74.2201661,67.972611 Z" id="Fill-10" fill="#D3C429"/><path d="M84.5255771,37.6153536 C82.6525348,30.6411137 76.6355271,25.8776002 69.5825282,21.9122286 C65.9452977,19.8661982 62.1466628,17.9880309 58.9410954,15.4827522 C55.735528,12.9806407 53.115521,9.72789581 52.6200468,6.06657824 C53.1493033,15.9198299 45.1991959,24.4301762 43.0896773,34.1345681 C41.9223102,39.496688 42.5829424,45.1248553 44.9214301,50.2050918 C45.060313,50.3666205 45.2104567,50.5186475 45.3305716,50.6896779 C44.7863008,49.1314009 44.9326909,47.4686053 45.1466456,45.8533181 C45.7697418,41.2133266 46.9558768,36.6271779 48.6937898,32.1898891 C48.4235312,33.1368907 48.3034163,34.118732 48.2358516,35.0910715 C47.8942748,40.0636222 48.4948495,45.0836813 50.0113006,49.8947032 C49.5683767,48.6246441 49.6922453,47.2659026 49.8574033,45.9451678 C50.3266023,42.1824988 51.1186101,38.4546695 51.9068644,34.7300073 C52.9391022,39.5536982 53.9713399,44.3742218 55.0035776,49.1979127 C55.4314871,44.4629043 55.4615158,39.6993907 55.0899102,34.9612151 C56.6401437,37.5393401 57.5898024,40.3360039 58.5282003,43.1136644 C58.9898921,44.4787404 59.4515839,45.8438164 59.9132757,47.2120597 C60.2811277,44.5135799 59.8119287,41.7897624 59.3427297,39.1039516 C58.6896048,35.3634532 58.0364798,31.6229549 57.3833548,27.8824566 C60.4500393,33.0323722 62.6834264,38.5338502 64.0009372,44.1905225 C64.5339472,46.4677607 64.9168136,48.7671695 65.2996799,51.0665782 C66.3018889,43.6425918 65.5361562,36.0507421 63.0700464,28.8737995 C68.5090009,35.2304296 71.1627903,43.0313164 70.5734764,50.8575411 C71.1815583,48.5074566 71.7896401,46.1573722 72.397722,43.8104549 C73.418699,45.4510799 74.0643168,47.2627353 74.2782715,49.1092303 C75.2879877,44.0004887 75.3067556,38.7555563 74.3308218,33.6436475 C77.9567914,38.4673384 79.8486017,44.2095259 79.6909509,49.9232083 C80.2577432,47.3862573 80.5843057,44.8081323 80.6593775,42.2268401 C82.4273193,44.5452522 83.4182675,47.2785715 83.4895858,50.0308941 C82.8739967,45.9039938 84.3641726,41.770759 84.5255771,37.6153536 Z" id="Fill-11" fill="#E17453"/><path d="M98.9237998,81.0185883 C97.2677998,80.9705883 95.6057998,80.9285883 93.9437998,80.8805883 C95.5997998,81.0725883 97.2617998,81.1025883 98.9237998,81.0185883 Z" id="Fill-12" fill="#E17453"/><path d="M14.4986952,82.1425058 C16.4086356,84.0034513 18.1244047,86.0703795 20.2073342,87.7253425 C24.9204036,91.4791965 31.176253,92.8358401 37.1849751,92.6298575 C39.416181,92.5517262 41.3967292,92.5339691 43.3066697,92.4558378 C45.9474007,91.4969536 48.5704798,90.4883495 51.1476637,89.3660999 C45.1495328,89.5365682 39.1337499,89.1388088 33.2062267,88.1870275 C36.9837429,87.6578655 40.7647896,87.1322549 44.5423059,86.6030929 C39.8680708,86.0029024 35.2997474,84.5681276 31.1162364,82.3840025 C32.1329884,82.1673657 33.1709228,82.085683 34.2088572,82.0643744 C27.8718088,80.6189453 21.6653849,78.5946343 15.7025578,75.9914413 C25.9265645,76.1406011 36.1717535,74.6312464 45.922688,71.537957 C40.5247231,71.9428192 35.0526201,71.310666 29.887661,69.6841143 C33.8840614,69.6237401 37.8839921,69.5598145 41.8839229,69.4994403 C37.7110031,68.7145758 33.608691,67.5461577 29.6475945,66.0154944 C32.7967015,64.9110019 35.9458086,63.802958 39.098446,62.6984655 C35.5256923,62.3859402 31.956469,62.0769665 28.3837153,61.7644412 C31.1056452,61.1571479 33.8275751,60.5498546 36.5495051,59.9425613 C34.2017964,60.0171412 31.8329053,59.3814365 29.8311748,58.1419899 C32.973221,55.1978603 36.7719196,52.9817724 40.8530493,51.6499889 C34.7843106,51.7849429 28.6343729,54.4769215 24.2778728,58.7386289 C21.5947771,61.3631305 19.5718642,64.6375424 16.6875364,67.0312014 C12.1474561,70.8028125 6.01870072,71.9499221 0.14766375,72.3796442 C5.80687737,74.11629 10.2481068,78.0050981 14.4986952,82.1425058 Z" id="Fill-13" fill="#E17453"/><path d="M85.0549839,106.006618 C86.9401086,100.671722 87.2626079,95.5653088 86.6508566,90.2811867 C85.3409111,95.9751274 83.4258638,101.505866 80.889091,106.684813 C80.8591684,102.227582 80.825921,97.7703508 80.7959984,93.3167462 C79.4328571,97.9299262 78.0697158,102.543106 76.7032497,107.15266 C76.812966,103.072606 76.9193575,98.9961801 77.0290737,94.916127 C73.8040808,100.776897 71.8025904,107.431916 71.2141123,114.235632 C69.73793,107.72568 68.8169784,101.067034 68.4678813,94.3757466 C67.7630375,99.0759678 67.4239145,103.84147 67.4571618,108.606972 C66.765617,104.124353 66.0773969,99.6453619 65.385852,95.1627435 C64.6510856,99.1811425 64.381782,103.301089 64.5945651,107.392023 C63.730134,103.536826 62.8690276,99.681629 62.0079213,95.8264322 C60.907434,100.414225 60.3854506,105.168847 60.468569,109.912589 C58.1013577,103.627494 56.6251754,96.9398333 56.116491,90.1687586 C55.0725242,95.2243977 54.7599991,100.461372 55.1955394,105.622186 C54.2380157,100.882071 53.2804921,96.1419563 52.3229684,91.4018413 C51.8109592,92.7944994 51.3787437,94.2197979 50.9565024,95.6450965 C50.8800335,97.3714123 50.986425,99.1376219 51.2457543,101.237489 C51.8076345,105.825282 53.7060582,110.29702 56.9111026,113.328953 C59.0821545,115.3853 61.7552414,116.719931 63.9828138,118.69649 C67.4405382,121.77557 71.3238286,126.312589 71.6862247,131.168759 C73.1025618,121.626874 81.8665631,115.022629 85.0549839,106.006618 Z" id="Fill-15" fill="#E17453"/><path d="M107.538661,45.3339613 C102.314457,44.4006142 96.9171511,44.3806139 91.6860229,45.2772938 C97.9107539,45.6872999 104.073168,46.9506518 109.934386,49.0106822 C103.107262,48.1740032 96.1901247,48.0306678 89.3353042,48.5806759 C98.0526971,49.4873559 106.676615,51.2407151 115.030495,53.8040863 C107.504041,53.1674102 99.9464278,52.904073 92.3922772,53.0140746 C97.2079617,53.8907542 102.023646,54.7674338 106.839331,55.6441134 C102.040956,55.7041143 97.246044,56.0074521 92.4788279,56.5574602 C100.534973,58.1574838 108.847308,58.5441562 117.024625,57.697477 C107.45211,59.2474999 97.7445764,60.0441783 88.0370427,60.0841789 C94.6564451,61.8508716 101.58743,62.5275483 108.438789,62.0708749 C106.288868,62.5242149 104.138947,62.9775549 101.989026,63.4308949 C104.239346,63.4475618 106.493128,63.4642288 108.743447,63.4808957 C106.77009,64.6642465 104.585549,65.5209258 102.314457,65.9942661 C109.570873,66.3876052 116.910378,65.314256 123.720192,62.8675533 C114.722374,67.6909578 104.637479,70.6176676 94.3690966,71.3810122 C98.6585525,71.884353 103.027635,71.7643512 107.279009,71.0276737 C104.564777,72.8443671 101.307006,73.8777157 98.0042287,74.0343847 C99.5933007,74.081052 101.178911,74.124386 102.767983,74.16772 C99.6071488,75.7444099 96.1589664,76.7777585 92.6276952,77.2110982 C97.0902526,77.7911068 101.618589,77.8411075 106.094994,77.401101 C111.249958,75.2010686 115.927161,71.614349 120.500503,66.7742776 C124.990757,62.0242075 128.549724,56.6541283 134.037043,52.9974077 C129.63334,53.044075 125.222713,52.3740652 121.050966,51.0240452 C114.701602,48.9673482 109.006562,45.3939622 102.826837,42.9005921 C101.493955,42.3605841 100.112605,41.9772451 98.7104829,41.6939076 C101.795152,42.5605871 104.772498,43.7706049 107.538661,45.3339613 Z" id="Fill-16" fill="#E17453"/><path d="M106.660453,12.4449495 C108.772969,10.5766445 110.885485,8.70833954 112.998,6.84003456 C111.587128,8.67368295 110.176256,10.5041807 108.769176,12.3346785 C110.301414,11.3958002 111.583335,10.1765185 112.497368,8.7902551 C107.968923,15.1009041 103.102931,21.2445714 97.9183545,27.1960522 C103.876635,24.0769596 108.791932,19.6031095 111.985358,14.3888688 C109.705965,17.7852141 108.048569,21.4745651 107.092817,25.2836388 C109.588392,21.9660585 111.769176,18.484647 113.60862,14.8835128 C111.920883,18.2042438 110.786875,21.7171612 110.259695,25.2930906 C113.142122,21.1752583 115.425308,16.7675708 117.052362,12.1992028 C115.125687,18.2956111 114.735042,24.7259829 115.918354,30.9515657 C116.976509,28.2798581 117.97398,25.5955481 118.918354,22.8954851 C118.398759,15.478976 116.635169,8.26725573 118.24326,0.951565749 C115.971452,2.8797321 113.479669,4.62516373 110.828595,6.19101124 C109.440478,8.27670753 108.052362,10.3592532 106.660453,12.4449495 Z" id="Fill-18" fill="#DC484A"/><path d="M119.520704,91.5127052 C120.312811,95.7984195 121.108469,100.084134 121.904128,104.369848 C120.657359,100.516226 119.019865,96.7682264 117.016511,93.1866623 C117.499589,97.2611316 118.771222,101.261985 120.756817,104.949172 C118.220655,102.718296 115.684493,100.484219 113.148331,98.2533432 C115.180102,100.62825 116.917053,103.2048 118.320112,105.922179 C113.475119,103.134385 108.630127,100.34659 103.781582,97.5587951 C108.498701,100.561036 113.123467,103.681701 117.648775,106.91119 C112.661701,105.041991 107.674626,103.172793 102.687552,101.303594 C105.735208,103.659296 108.782865,106.014999 111.830521,108.373902 C107.358494,106.040605 102.38918,104.491474 97.2742314,103.841735 C100.48173,106.0182 103.685677,108.197865 106.893176,110.37753 C102.211577,110.387132 97.5335309,109.779002 93.0508471,108.572345 C100.293472,111.715415 107.951686,114.08392 115.812367,115.610646 C110.633482,116.638065 105.159777,116.442824 100.087453,115.056928 C102.921987,116.84931 106.211183,117.732699 109.617596,118.411244 C109.962145,118.363233 110.296037,118.296019 110.640586,118.264012 C116.68617,117.719896 124.426081,117.969549 129.050847,121.512705 C123.925243,115.098537 123.907483,106.552714 122.404966,98.5446054 C121.392633,96.217709 120.419372,93.8748091 119.520704,91.5127052 Z" id="Fill-20" fill="#DC484A"/><path d="M23.0716222,51.3607873 C19.2318616,47.0134989 16.5126129,41.7619209 15.2280385,36.1988654 C18.6000464,38.9418771 21.9685637,41.6848888 25.3405717,44.4279006 C23.5777725,41.8255561 21.818464,39.2265609 20.0591555,36.6242164 C22.4258443,37.953857 24.7995145,39.2834976 27.169694,40.6131382 C25.0613164,38.606955 22.9564294,36.6007719 20.8515424,34.5945887 C25.4801994,38.0509844 30.7825597,40.6767734 36.402573,42.2910978 C31.5190956,39.1595765 26.6391089,36.0314044 21.7556315,32.9032323 C25.8886103,34.0888564 30.021589,35.2778297 34.1545677,36.4634538 C31.6447605,34.6615731 29.138444,32.8563432 26.6286369,31.0544624 C30.5940624,32.2367373 34.6956249,33.0070581 38.835585,33.3453294 C36.8074932,31.593687 34.4512765,30.197062 31.9135438,29.2425341 C36.0953922,29.0549777 40.2772406,28.8674214 44.459089,28.6765158 C42.6160039,27.6918449 40.7345212,26.7775077 38.835585,25.8899642 C36.6992818,26.1110128 34.5490159,26.4358872 32.3952592,26.8478413 C27.3197938,27.8157661 22.2687632,29.0784223 17.0990491,29.2659786 C11.9258443,29.453535 6.50480043,28.452118 2.45908899,25.3607873 C9.0983842,31.1884313 12.1736834,39.350482 15.6678656,47.3551194 C18.1357845,48.6914585 20.6037034,50.0277975 23.0716222,51.3607873 Z" id="Fill-24" fill="#DC484A"/></g></g></g></g></g></g></svg>